<svg xmlns="http://www.w3.org/2000/svg" viewBox="0 0 1600 900"><defs><linearGradient id="s" x1="0" y1="0" x2="0" y2="1"><stop offset="0" stop-color="#4a0812"/><stop offset=".4" stop-color="#8f1623"/><stop offset="1" stop-color="#c63a2c"/></linearGradient><radialGradient id="g" cx="800" cy="1050" r="900" gradientUnits="userSpaceOnUse"><stop offset="0" stop-color="#ffb35a" stop-opacity=".8"/><stop offset=".45" stop-color="#ff6a3a" stop-opacity=".35"/><stop offset="1" stop-color="#ff6a3a" stop-opacity="0"/></radialGradient><radialGradient id="g2" cx="1300" cy="40" r="520" gradientUnits="userSpaceOnUse"><stop offset="0" stop-color="#ff8a4a" stop-opacity=".45"/><stop offset="1" stop-color="#ff8a4a" stop-opacity="0"/></radialGradient><linearGradient id="sw" x1="0" y1="0" x2="1" y2="0"><stop offset="0" stop-color="#ffd27a" stop-opacity="0"/><stop offset=".5" stop-color="#ffb060" stop-opacity=".9"/><stop offset="1" stop-color="#ffd27a" stop-opacity="0"/></linearGradient><filter id="gl" x="-100%" y="-100%" width="300%" height="300%"><feGaussianBlur stdDeviation="3" result="b"/><feMerge><feMergeNode in="b"/><feMergeNode in="SourceGraphic"/></feMerge></filter><filter id="b1" x="-50%" y="-50%" width="200%" height="200%"><feGaussianBlur stdDeviation="10"/></filter><filter id="b2" x="-50%" y="-50%" width="200%" height="200%"><feGaussianBlur stdDeviation="1.2"/></filter></defs><rect width="1600" height="900" fill="url(#s)"/><rect width="1600" height="900" fill="url(#g)"/><rect width="1600" height="900" fill="url(#g2)"/><g fill="none" stroke="url(#sw)" filter="url(#b1)"><path d="M-100 120C450 -40 1000 260 1700 60" stroke-width="40" opacity=".3"/><path d="M-100 300C450 120 1000 20 1700 200" stroke-width="27" opacity=".3"/><path d="M-100 40C450 180 1000 120 1700 300" stroke-width="30" opacity=".3"/></g><g fill="none" stroke="url(#sw)" filter="url(#b2)"><path d="M-100 120C450 -40 1000 260 1700 60" stroke-width="1.5" opacity=".4"/><path d="M-100 126C450 -18 1000 246 1700 70" stroke-width="1.6" opacity=".4"/><path d="M-100 132C450 4 1000 232 1700 80" stroke-width="2.1" opacity=".7"/><path d="M-100 138C450 26 1000 218 1700 90" stroke-width="2.1" opacity=".4"/><path d="M-100 144C450 48 1000 204 1700 100" stroke-width="1.1" opacity=".8"/><path d="M-100 150C450 70 1000 190 1700 110" stroke-width="1.7" opacity=".6"/><path d="M-100 300C450 120 1000 20 1700 200" stroke-width="1.9" opacity=".5"/><path d="M-100 306C450 142 1000 6 1700 210" stroke-width="1" opacity=".4"/><path d="M-100 312C450 164 1000 -8 1700 220" stroke-width="1.5" opacity=".6"/><path d="M-100 318C450 186 1000 -22 1700 230" stroke-width="2.4" opacity=".4"/><path d="M-100 324C450 208 1000 -36 1700 240" stroke-width="1.3" opacity=".5"/><path d="M-100 40C450 180 1000 120 1700 300" stroke-width="1" opacity=".4"/><path d="M-100 46C450 202 1000 106 1700 310" stroke-width=".8" opacity=".7"/><path d="M-100 52C450 224 1000 92 1700 320" stroke-width="1.6" opacity=".6"/><path d="M-100 58C450 246 1000 78 1700 330" stroke-width="1.8" opacity=".5"/></g><g fill="#ffb060" filter="url(#b1)"><circle cx="415" cy="311" r="17" opacity=".3"/><circle cx="710" cy="325" r="24" opacity=".2"/><circle cx="186" cy="159" r="23" opacity=".2"/><circle cx="1489" cy="66" r="32" opacity=".3"/><circle cx="1306" cy="165" r="19" opacity=".2"/><circle cx="1041" cy="441" r="20" opacity=".2"/><circle cx="907" cy="155" r="28" opacity=".2"/><circle cx="657" cy="176" r="21" opacity=".3"/><circle cx="873" cy="420" r="22" opacity=".3"/><circle cx="830" cy="186" r="21" opacity=".3"/><circle cx="969" cy="182" r="21" opacity=".2"/><circle cx="187" cy="18" r="20" opacity=".2"/><circle cx="698" cy="127" r="17" opacity=".3"/><circle cx="89" cy="235" r="30" opacity=".3"/></g><g filter="url(#gl)"><circle cx="509" cy="330" r="3.9" fill="#ffa04a" opacity=".8"/><circle cx="16" cy="810" r="3.9" fill="#ffe09a" opacity=".6"/><circle cx="19" cy="5" r="4" fill="#ffe09a" opacity=".7"/><circle cx="574" cy="20" r="1.5" fill="#ffa04a" opacity=".6"/><circle cx="1299" cy="24" r="3.9" fill="#ffe09a" opacity=".6"/><circle cx="820" cy="296" r="4" fill="#ffa04a" opacity=".8"/><circle cx="16" cy="312" r="2" fill="#ffe09a" opacity=".6"/><circle cx="1226" cy="262" r="3.8" fill="#ffa04a" opacity=".5"/><circle cx="548" cy="70" r="3.1" fill="#ffa04a" opacity=".7"/><circle cx="364" cy="2" r="2.5" fill="#ffa04a" opacity=".9"/><circle cx="1450" cy="35" r="4" fill="#ffa04a" opacity=".7"/><circle cx="1498" cy="123" r="3.6" fill="#ffa04a" opacity=".5"/><circle cx="633" cy="352" r="4.4" fill="#ffe09a" opacity=".7"/><circle cx="1189" cy="416" r="2.6" fill="#ffe09a" opacity="1"/><circle cx="951" cy="806" r="2.2" fill="#ffa04a" opacity=".7"/><circle cx="1432" cy="279" r="3.6" fill="#ffa04a" opacity=".8"/><circle cx="1119" cy="347" r="1.7" fill="#ffe09a" opacity=".9"/><circle cx="1106" cy="132" r="3.9" fill="#ffe09a" opacity=".7"/><circle cx="1281" cy="267" r="2.7" fill="#ffa04a" opacity=".7"/><circle cx="1520" cy="430" r="2.2" fill="#ffe09a" opacity="1"/><circle cx="344" cy="64" r="2.8" fill="#ffe09a" opacity=".6"/><circle cx="711" cy="387" r="3.9" fill="#ffe09a" opacity=".8"/><circle cx="78" cy="393" r="2.8" fill="#ffe09a" opacity="1"/><circle cx="332" cy="60" r="2.1" fill="#ffe09a" opacity=".8"/><circle cx="92" cy="2" r="1.7" fill="#ffa04a" opacity="1"/><circle cx="1176" cy="367" r="4.5" fill="#ffe09a" opacity=".7"/><circle cx="1195" cy="616" r="3.5" fill="#ffe09a" opacity="1"/><circle cx="747" cy="35" r="4.3" fill="#ffe09a" opacity=".8"/><circle cx="1356" cy="458" r="3.7" fill="#ffa04a" opacity=".8"/><circle cx="386" cy="736" r="1.8" fill="#ffa04a" opacity=".5"/><circle cx="157" cy="8" r="3.4" fill="#ffa04a" opacity=".8"/><circle cx="399" cy="512" r="3.7" fill="#ffa04a" opacity=".6"/><circle cx="1204" cy="693" r="2.5" fill="#ffe09a" opacity=".8"/><circle cx="872" cy="16" r="2.7" fill="#ffe09a" opacity=".8"/><circle cx="864" cy="50" r="1.7" fill="#ffa04a" opacity=".8"/><circle cx="1269" cy="588" r="3.4" fill="#ffa04a" opacity=".9"/><circle cx="1533" cy="189" r="4.5" fill="#ffe09a" opacity="1"/><circle cx="708" cy="408" r="2.1" fill="#ffa04a" opacity=".7"/><circle cx="287" cy="85" r="4" fill="#ffa04a" opacity=".8"/><circle cx="215" cy="265" r="4.4" fill="#ffe09a" opacity="1"/><circle cx="415" cy="399" r="1.6" fill="#ffe09a" opacity=".8"/><circle cx="550" cy="761" r="1.9" fill="#ffe09a" opacity=".8"/><circle cx="469" cy="104" r="3" fill="#ffa04a" opacity=".7"/><circle cx="410" cy="615" r="1.9" fill="#ffa04a" opacity="1"/><circle cx="290" cy="465" r="2.3" fill="#ffa04a" opacity=".9"/><circle cx="1542" cy="6" r="2" fill="#ffa04a" opacity=".6"/><circle cx="426" cy="574" r="3.4" fill="#ffe09a" opacity=".8"/><circle cx="1201" cy="419" r="3.6" fill="#ffe09a" opacity=".9"/><circle cx="660" cy="614" r="4.2" fill="#ffa04a" opacity=".8"/><circle cx="1354" cy="757" r="4.3" fill="#ffa04a" opacity=".9"/><circle cx="239" cy="554" r="1.8" fill="#ffe09a" opacity="1"/><circle cx="1514" cy="518" r="3.4" fill="#ffa04a" opacity=".7"/><circle cx="1261" cy="562" r="3.2" fill="#ffa04a" opacity="1"/><circle cx="868" cy="75" r="2.4" fill="#ffe09a" opacity="1"/><circle cx="111" cy="55" r="1.4" fill="#ffe09a" opacity=".6"/><circle cx="191" cy="463" r="1.7" fill="#ffe09a" opacity=".6"/><circle cx="274" cy="21" r="2.8" fill="#ffa04a" opacity=".9"/><circle cx="254" cy="38" r="1.7" fill="#ffe09a" opacity="1"/><circle cx="996" cy="734" r="3" fill="#ffe09a" opacity="1"/><circle cx="645" cy="100" r="3" fill="#ffa04a" opacity=".7"/><circle cx="974" cy="535" r="2.8" fill="#ffa04a" opacity=".7"/><circle cx="511" cy="417" r="4.5" fill="#ffe09a" opacity=".6"/><circle cx="442" cy="401" r="1.5" fill="#ffe09a" opacity=".5"/><circle cx="914" cy="33" r="3.6" fill="#ffe09a" opacity=".5"/><circle cx="1145" cy="438" r="3.5" fill="#ffa04a" opacity=".8"/><circle cx="549" cy="223" r="3.9" fill="#ffa04a" opacity=".7"/><circle cx="247" cy="782" r="4.1" fill="#ffa04a" opacity=".8"/><circle cx="362" cy="705" r="2.6" fill="#ffa04a" opacity=".9"/><circle cx="666" cy="305" r="4" fill="#ffa04a" opacity=".6"/><circle cx="361" cy="8" r="3.5" fill="#ffa04a" opacity=".7"/><circle cx="936" cy="16" r="1.5" fill="#ffe09a" opacity=".5"/><circle cx="620" cy="343" r="4.3" fill="#ffe09a" opacity=".5"/><circle cx="1092" cy="312" r="2.7" fill="#ffe09a" opacity=".7"/><circle cx="1560" cy="737" r="2.6" fill="#ffe09a" opacity=".9"/><circle cx="1586" cy="286" r="2.7" fill="#ffa04a" opacity=".8"/></g></svg>
