<svg xmlns="http://www.w3.org/2000/svg" viewBox="0 0 1600 900"><defs><linearGradient id="s" x1="0" y1="0" x2="0" y2="1"><stop offset="0" stop-color="#f4a6c6"/><stop offset=".35" stop-color="#f9cde0"/><stop offset="1" stop-color="#fef1f6"/></linearGradient><radialGradient id="g" cx="300" cy="-40" r="700" gradientUnits="userSpaceOnUse"><stop offset="0" stop-color="#fff" stop-opacity=".7"/><stop offset="1" stop-color="#fff" stop-opacity="0"/></radialGradient><linearGradient id="p1" x1="0" y1="0" x2="1" y2="1"><stop offset="0" stop-color="#fff5f9"/><stop offset="1" stop-color="#f58fb8"/></linearGradient><linearGradient id="p2" x1="0" y1="0" x2="1" y2="1"><stop offset="0" stop-color="#ffe3ee"/><stop offset="1" stop-color="#e8699c"/></linearGradient><path id="P" d="M0 0C-22-18-26-48-10-62L0-54L10-62C26-48 22-18 0 0Z"/><g id="F"><use href="#P"/><use href="#P" transform="rotate(72)"/><use href="#P" transform="rotate(144)"/><use href="#P" transform="rotate(216)"/><use href="#P" transform="rotate(288)"/></g><filter id="b1" x="-50%" y="-50%" width="200%" height="200%"><feGaussianBlur stdDeviation="2.5"/></filter><filter id="b2" x="-50%" y="-50%" width="200%" height="200%"><feGaussianBlur stdDeviation="7"/></filter></defs><rect width="1600" height="900" fill="url(#s)"/><rect width="1600" height="900" fill="url(#g)"/><g fill="#fff" filter="url(#b2)"><circle cx="881" cy="505" r="34" opacity=".2"/><circle cx="714" cy="546" r="22" opacity=".4"/><circle cx="1264" cy="621" r="24" opacity=".5"/><circle cx="363" cy="546" r="43" opacity=".4"/><circle cx="912" cy="186" r="15" opacity=".3"/><circle cx="1341" cy="240" r="38" opacity=".4"/><circle cx="890" cy="443" r="42" opacity=".4"/><circle cx="674" cy="475" r="44" opacity=".4"/><circle cx="571" cy="587" r="43" opacity=".4"/><circle cx="914" cy="187" r="27" opacity=".3"/><circle cx="829" cy="557" r="18" opacity=".5"/><circle cx="1421" cy="594" r="34" opacity=".5"/><circle cx="619" cy="268" r="15" opacity=".3"/><circle cx="114" cy="450" r="30" opacity=".3"/><circle cx="675" cy="529" r="39" opacity=".5"/><circle cx="1200" cy="524" r="42" opacity=".5"/><circle cx="94" cy="412" r="38" opacity=".5"/><circle cx="1406" cy="161" r="14" opacity=".2"/></g><g fill="none" stroke="#8a4b5e" stroke-linecap="round" opacity=".75"><path d="M1640 40C1450 70 1320 60 1150 120S900 150 820 110" stroke-width="7"/><path d="M1330 70C1300 120 1260 150 1210 170M1050 128C1020 90 990 70 950 60M1500 55C1480 20 1460 5 1430-10" stroke-width="4"/></g><g fill="url(#p1)" stroke="#f07fae" stroke-width="1.5"><use href="#F" transform="translate(1540 52)rotate(10)scale(0.62)"/><use href="#F" transform="translate(1420 64)rotate(40)scale(0.5)"/><use href="#F" transform="translate(1290 92)rotate(5)scale(0.7)"/><use href="#F" transform="translate(1210 168)rotate(30)scale(0.48)"/><use href="#F" transform="translate(1120 128)rotate(60)scale(0.58)"/><use href="#F" transform="translate(990 136)rotate(20)scale(0.52)"/><use href="#F" transform="translate(950 58)rotate(50)scale(0.42)"/><use href="#F" transform="translate(860 108)rotate(15)scale(0.46)"/><use href="#F" transform="translate(1440 0)rotate(0)scale(0.44)"/><use href="#F" transform="translate(1360 60)rotate(12)scale(0.36)"/></g><g fill="#e05c8f"><circle cx="1540" cy="52" r="7"/><circle cx="1420" cy="64" r="7"/><circle cx="1290" cy="92" r="7"/><circle cx="1210" cy="168" r="7"/><circle cx="1120" cy="128" r="7"/><circle cx="990" cy="136" r="7"/><circle cx="950" cy="58" r="7"/><circle cx="860" cy="108" r="7"/><circle cx="1440" cy="0" r="7"/><circle cx="1360" cy="60" r="7"/></g><g fill="#f7a8c8" opacity=".6" filter="url(#b1)"><use href="#P" transform="translate(1228 316)rotate(343)scale(.73 .39)"/><use href="#P" transform="translate(235 12)rotate(121)scale(.67 .43)"/><use href="#P" transform="translate(1179 192)rotate(314)scale(.47 .64)"/><use href="#P" transform="translate(1008 412)rotate(140)scale(.5 .44)"/><use href="#P" transform="translate(49 138)rotate(353)scale(.53 .64)"/><use href="#P" transform="translate(1599 411)rotate(8)scale(.35 .62)"/><use href="#P" transform="translate(932 278)rotate(279)scale(.4 .46)"/><use href="#P" transform="translate(1399 425)rotate(146)scale(.67 .46)"/><use href="#P" transform="translate(373 245)rotate(28)scale(.57 .53)"/><use href="#P" transform="translate(68 4)rotate(336)scale(.36 .48)"/><use href="#P" transform="translate(877 298)rotate(13)scale(.44 .63)"/><use href="#P" transform="translate(827 752)rotate(8)scale(.41 .36)"/><use href="#P" transform="translate(410 159)rotate(98)scale(.35 .58)"/><use href="#P" transform="translate(955 -14)rotate(124)scale(.69 .6)"/><use href="#P" transform="translate(1552 150)rotate(140)scale(.61 .54)"/></g><g fill="url(#p1)" opacity=".9"><use href="#P" transform="translate(815 138)rotate(312)scale(.31 .44)"/><use href="#P" transform="translate(1528 38)rotate(257)scale(.41 .32)"/><use href="#P" transform="translate(480 540)rotate(346)scale(.36 .36)"/><use href="#P" transform="translate(159 421)rotate(180)scale(.44 .51)"/><use href="#P" transform="translate(961 104)rotate(162)scale(.44 .37)"/><use href="#P" transform="translate(1184 128)rotate(94)scale(.35 .48)"/><use href="#P" transform="translate(1220 375)rotate(148)scale(.7 .51)"/><use href="#P" transform="translate(1083 362)rotate(235)scale(.63 .49)"/><use href="#P" transform="translate(128 306)rotate(213)scale(.3 .61)"/><use href="#P" transform="translate(1534 205)rotate(326)scale(.44 .63)"/><use href="#P" transform="translate(1037 309)rotate(32)scale(.31 .51)"/><use href="#P" transform="translate(405 159)rotate(176)scale(.63 .48)"/><use href="#P" transform="translate(25 138)rotate(69)scale(.52 .5)"/><use href="#P" transform="translate(966 714)rotate(293)scale(.49 .43)"/></g><g fill="url(#p2)" opacity=".85"><use href="#P" transform="translate(1348 530)rotate(250)scale(.63 .43)"/><use href="#P" transform="translate(338 786)rotate(172)scale(.33 .48)"/><use href="#P" transform="translate(1340 604)rotate(75)scale(.73 .54)"/><use href="#P" transform="translate(283 -12)rotate(217)scale(.31 .37)"/><use href="#P" transform="translate(507 695)rotate(27)scale(.56 .39)"/><use href="#P" transform="translate(1375 -7)rotate(66)scale(.74 .3)"/><use href="#P" transform="translate(651 -9)rotate(206)scale(.38 .5)"/><use href="#P" transform="translate(16 545)rotate(212)scale(.46 .47)"/><use href="#P" transform="translate(227 227)rotate(243)scale(.37 .48)"/><use href="#P" transform="translate(571 58)rotate(153)scale(.63 .48)"/><use href="#P" transform="translate(1062 242)rotate(234)scale(.67 .64)"/><use href="#P" transform="translate(1463 211)rotate(59)scale(.7 .57)"/><use href="#P" transform="translate(1529 621)rotate(279)scale(.48 .41)"/><use href="#P" transform="translate(430 180)rotate(86)scale(.42 .36)"/><use href="#P" transform="translate(992 69)rotate(215)scale(.73 .5)"/><use href="#P" transform="translate(570 19)rotate(272)scale(.66 .38)"/><use href="#P" transform="translate(365 -2)rotate(348)scale(.61 .65)"/></g></svg>
